<svg xmlns="http://www.w3.org/2000/svg" width="1484.009" height="494.771" viewBox="0 0 1484.009 494.771">
  <g id="Group_29" data-name="Group 29" transform="translate(-168.991 -6103.877)">
    <path id="Path_5" data-name="Path 5" d="M527.848,291.327c6.221,11.329,7.27,23.97,6.509,36.806-.866,14.957-6.8,29.355-14.62,41.689-4.278,6.781-9.738,10.8-16.8,13.841-3.176,1.339-6.247,3.07-9.449,4.325-3.176,1.228-6.116.726-9.37,1.144a2.68,2.68,0,0,0-2.31,2.428c-.971,5.72.945,10.911,3.045,16.073-5.066-.084-12.205-4.688-15.8-6.306a37.856,37.856,0,0,0-12-2.874,1.306,1.306,0,0,0-.341.028c-.131,0-.236-.084-.367-.056-6.9.223-12.914,1.144-19.686-1.284-6.746-2.428-13.649-6.418-18.557-11.971a102.058,102.058,0,0,1-19.449-33.513,64.887,64.887,0,0,1-3.2-22.017c.1-7.339,3.438-13.645,6.326-20.147,5.565-12.5,13.675-23.384,24.883-30.695,10.656-6.948,23.255-9.934,35.487-11.832,12.415-1.9,25.434-2.735,37.613.977C511.574,271.543,521.653,280.082,527.848,291.327Z" transform="matrix(0.966, 0.259, -0.259, 0.966, -107.478, 5745.218)" fill="#f79659"/>
    <rect id="Rectangle_24" data-name="Rectangle 24" width="1398" height="140" transform="translate(255 6277)" fill="#ebacc7"/>
    <text id="実働_時間" data-name="実働９時間" transform="translate(954 6374)" fill="#fff" font-size="54" font-family="YuGothicUI-Bold, Yu Gothic UI" font-weight="700" letter-spacing="0.12em"><tspan x="-156.92" y="0">実働</tspan><tspan y="0" font-size="70">９</tspan><tspan y="0">時間</tspan></text>
    <text id="出勤" transform="translate(255 6202)" fill="#fff" font-size="30" font-family="YuGothicUI-Bold, Yu Gothic UI" font-weight="700" letter-spacing="0.12em"><tspan x="-31.8" y="0">出勤</tspan></text>
    <text id="_19:00" data-name="19:00" transform="translate(1549 6243)" fill="#343434" font-size="54" font-family="SegoeUI, Segoe UI" letter-spacing="0.12em"><tspan x="-77.032" y="0">19:00</tspan></text>
    <path id="Path_3" data-name="Path 3" d="M1544,6336v139.207" transform="translate(0 -55)" fill="none" stroke="#fff" stroke-linecap="round" stroke-width="4" stroke-dasharray="6 12"/>
    <path id="Path_4" data-name="Path 4" d="M527.848,291.327c6.221,11.329,7.27,23.97,6.509,36.806-.866,14.957-6.8,29.355-14.62,41.689-4.278,6.781-9.738,10.8-16.8,13.841-3.176,1.339-6.247,3.07-9.449,4.325-3.176,1.228-6.116.726-9.37,1.144a2.68,2.68,0,0,0-2.31,2.428c-.971,5.72.945,10.911,3.045,16.073-5.066-.084-12.205-4.688-15.8-6.306a37.856,37.856,0,0,0-12-2.874,1.306,1.306,0,0,0-.341.028c-.131,0-.236-.084-.367-.056-6.9.223-12.914,1.144-19.686-1.284-6.746-2.428-13.649-6.418-18.557-11.971a102.058,102.058,0,0,1-19.449-33.513,64.887,64.887,0,0,1-3.2-22.017c.1-7.339,3.438-13.645,6.326-20.147,5.565-12.5,13.675-23.384,24.883-30.695,10.656-6.948,23.255-9.934,35.487-11.832,12.415-1.9,25.434-2.735,37.613.977C511.574,271.543,521.653,280.082,527.848,291.327Z" transform="matrix(-0.978, -0.208, 0.208, -0.978, 1933.484, 6940.418)" fill="#f7ae59"/>
    <text id="完全_退店" data-name="完全
退店" transform="translate(1547 6514)" fill="#fff" font-size="30" font-family="YuGothicUI-Bold, Yu Gothic UI" font-weight="700" letter-spacing="0.12em"><tspan x="-31.8" y="0">完全</tspan><tspan y="0" font-family="SegoeUI-Bold, Segoe UI"></tspan><tspan x="-31.8" y="38">退店</tspan></text>
  </g>
</svg>
